<?xml version='1.0' encoding='utf-8'?>
<svg xmlns="http://www.w3.org/2000/svg" version="1.1" viewBox="0 0 40 40"> <g> <path d="m29 0h-24.668v40h31.336v-33.336z" fill="#e7e7e7"/> <path d="m30.348 19.781c-0.48047-0.85547-2.1445-1.125-2.9062-1.2461-0.59766-0.097656-1.2109-0.125-1.8203-0.125-0.47656-0.003906-0.94531 0.019532-1.4102 0.046875-0.17188 0.011719-0.33984 0.027344-0.50781 0.042969-0.17578-0.17969-0.34375-0.36719-0.50391-0.55469-1.0312-1.2227-1.8672-2.6094-2.543-4.0469 0.17969-0.69531 0.32422-1.4219 0.41016-2.1758 0.16016-1.375 0.21484-2.9414-0.30078-4.2539-0.17969-0.45312-0.65234-1.0039-1.1992-0.73047-0.63281 0.31641-0.80859 1.2109-0.85938 1.8438-0.042969 0.51172-0.011719 1.0273 0.074219 1.5312 0.085938 0.50781 0.22656 0.98828 0.38281 1.4688 0.14063 0.44141 0.30078 0.87891 0.47266 1.3125-0.10938 0.33984-0.22656 0.67578-0.34766 1.0039-0.28516 0.74219-0.58984 1.4492-0.88672 2.1289-0.15625 0.33984-0.30859 0.66797-0.45703 0.99219-0.47266 1.0352-0.98437 2.0547-1.5586 3.0352-1.3398 0.47656-2.543 1.0234-3.543 1.668-0.53516 0.34766-1.0117 0.72266-1.4023 1.1328-0.375 0.39062-0.75391 0.89844-0.78516 1.457-0.019531 0.31641 0.10547 0.62109 0.36328 0.80859 0.35547 0.26562 0.82812 0.25 1.2422 0.16016 1.3516-0.28125 2.3906-1.4453 3.2734-2.4258 0.60938-0.67188 1.3047-1.5312 2.0273-2.5664l0.007812-0.007812c1.2422-0.38672 2.5977-0.71094 4.0312-0.94922 0.65625-0.10938 1.332-0.19922 2.0195-0.26172 0.48438 0.45313 1.0039 0.86719 1.5742 1.2109 0.44531 0.27344 0.91406 0.50391 1.4102 0.67578 0.5 0.16016 1 0.29297 1.5195 0.37891 0.26172 0.039062 0.53125 0.054687 0.80469 0.042968 0.60937-0.023437 1.4883-0.25781 1.5469-0.99609 0.015626-0.22656-0.03125-0.42578-0.12891-0.60156zm-14.629 1.3594c-0.28516 0.44531-0.5625 0.84375-0.82031 1.1953-0.63672 0.86328-1.3672 1.8945-2.418 2.2773-0.19922 0.074219-0.46484 0.14844-0.74219 0.13281-0.24609-0.015625-0.49219-0.12109-0.48047-0.40234 0.007813-0.14844 0.078126-0.33594 0.1875-0.51953 0.12109-0.20312 0.26953-0.38672 0.43359-0.55859 0.34766-0.36328 0.78516-0.71875 1.2891-1.043 0.77344-0.50391 1.6992-0.95312 2.7266-1.3594-0.058593 0.09375-0.11719 0.1875-0.17578 0.27734zm3.5898-11.117c-0.078125-0.46094-0.089844-0.93359-0.039063-1.3828 0.023438-0.22656 0.070313-0.44922 0.13672-0.65625 0.054688-0.17578 0.17578-0.60156 0.37109-0.65625 0.32031-0.09375 0.41797 0.59766 0.45703 0.79297 0.20703 1.1055 0.023437 2.3359-0.22656 3.4258-0.039062 0.17188-0.082031 0.33984-0.125 0.51172-0.078124-0.21094-0.15234-0.42578-0.21875-0.63672-0.14453-0.46484-0.27734-0.9375-0.35547-1.3984zm2.2031 8.7461c-1.2031 0.19531-2.3516 0.44922-3.4297 0.75391 0.13281-0.039063 0.72266-1.1602 0.85547-1.3945 0.625-1.0977 1.1328-2.2461 1.5-3.457 0.64453 1.2812 1.4297 2.5039 2.3945 3.5938 0.089844 0.097656 0.17969 0.19531 0.26953 0.29297-0.53906 0.054687-1.0703 0.12891-1.5898 0.21094zm8.1445 1.543c-0.042969 0.23828-0.55078 0.375-0.78906 0.41016-0.70313 0.11328-1.4414 0.023438-2.1133-0.20312-0.46094-0.15234-0.90625-0.36328-1.3281-0.61719-0.41797-0.25391-0.8125-0.55078-1.1797-0.88281 0.45312-0.023437 0.91016-0.042969 1.3711-0.035156 0.46094 0.003906 0.92578 0.027344 1.3828 0.089844 0.85938 0.09375 1.8203 0.39062 2.4961 0.94531 0.13281 0.10938 0.17578 0.20703 0.16016 0.29297z" fill="#fb3449"/> <path d="m30.031 3.332h-25.699v-3.332h24.668z" fill="#fb3449"/> <path d="m16.734 31.816c0 0.70703-0.20703 1.2539-0.625 1.6367-0.41797 0.38672-1.0117 0.57812-1.7773 0.57812h-0.48047v2.1016h-1.7109v-6.332h2.1914c0.80078 0 1.3984 0.17578 1.8008 0.52344 0.40234 0.35156 0.60156 0.84766 0.60156 1.4922zm-2.8828 0.82031h0.3125c0.25391 0 0.46094-0.070313 0.60938-0.21484 0.15234-0.14453 0.23047-0.34375 0.23047-0.59766 0-0.42578-0.23828-0.64062-0.71094-0.64062h-0.44141v1.4531z" fill="#a3a9ac"/> <path d="m23.117 32.832c0 1.0586-0.29297 1.8711-0.875 2.4414-0.57813 0.57422-1.3984 0.85937-2.4492 0.85937h-2.0508v-6.332h2.1914c1.0156 0 1.8008 0.26172 2.3555 0.78125 0.55078 0.51953 0.82813 1.2695 0.82813 2.25zm-1.7773 0.0625c0-0.58203-0.11328-1.0117-0.34375-1.293-0.23047-0.27734-0.57812-0.41797-1.043-0.41797h-0.5v3.5469h0.38281c0.51953 0 0.89844-0.15234 1.1406-0.45312 0.24219-0.30078 0.36328-0.76172 0.36328-1.3828z" fill="#a3a9ac"/> <path d="m25.934 36.133h-1.6836v-6.332h3.7422v1.375h-2.0586v1.207h1.8984v1.3711h-1.8984z" fill="#a3a9ac"/> <path d="m29 6.6641h6.668l-6.668-6.6641z" fill="#d0d2d2"/> </g> </svg>